# xmcd
#
# Track frame offsets:
#	150
#	11392
#	23142
#	36100
#	47365
#	64645
#	78572
#	92737
#	111230
#	123642
#	135192
#	147302
#	165242
#	181472
#	189480
#	201197
#	217450
#	231985
#	243650
#	258925
#	275767
#	292137
#	307222
#	318615
#	329460
#
# Disc length: 4597
#
# Revision: 2
# Processed by: cddbd v1.5.1PL0 Copyright (c) Steve Scherf et al.
# Submitted via: OrangeCD 4.2
# Normalized: r0:DSETVAR1,TDELIM( - ),TSWAP
#
DISCID=7d11f319
DTITLE=Various Artist - Blues and Soul Greats 1
DYEAR=1900
DGENRE=Blues
TTITLE0=John Lee Hooker - Boom Boom
TTITLE1=Lightnin' Hopkins - Lightnin-s Stomp
TTITLE2=Billie Holiday - My Man
TTITLE3=Canned Heat - Can't Hold On
TTITLE4=Howlin' Wolf - Dust My Broom
TTITLE5=Mississippi John Hurt - Casey Jones
TTITLE6=Leadbelly - The Boll Weevil
TTITLE7=Pinetop Perkins - Kidney Stew
TTITLE8=Jimmy Reed - Honest I Do
TTITLE9=Lightning Slim - G. I. Blues
TTITLE10=Memphis Slim - Wish Me Well
TTITLE11=Big Joe Turner - Chains Of Love
TTITLE12=Muddy Waters - Corrina Corrina
TTITLE13=Bille Holiday - Miss Brown To Do
TTITLE14=Big Joe Williams - Sugar Mamma
TTITLE15=John Lee Hooker - Process
TTITLE16=Lightnin' Hopkins - Santa Fe Blues
TTITLE17=Ella Fitzgerald - A Tisket, A Tasket
TTITLE18=Howlin' Wolf - Goin' Down Slow
TTITLE19=Mississippi John Hurt - My Creole Belle
TTITLE20=Leadbelly - John Hardy
TTITLE21=Pinetop Perkins - Yonders Wall
TTITLE22=Jimmy Reed - I'm Nervous
TTITLE23=Lightning Slim - My Babe
TTITLE24=Big Joe Turner - Jump For Joy
EXTD=
EXTT0=
EXTT1=
EXTT2=
EXTT3=
EXTT4=
EXTT5=
EXTT6=
EXTT7=
EXTT8=
EXTT9=
EXTT10=
EXTT11=
EXTT12=
EXTT13=
EXTT14=
EXTT15=
EXTT16=
EXTT17=
EXTT18=
EXTT19=
EXTT20=
EXTT21=
EXTT22=
EXTT23=
EXTT24=
PLAYORDER=
